<svg xmlns="http://www.w3.org/2000/svg" xmlns:xlink="http://www.w3.org/1999/xlink" viewBox="0 0 189.53 181.03"><defs>
<style>

@keyframes dodo {
    0% {
        transform: translateY(0)
    }

    50% {
        transform: translateY(20px)
    }
}

#ani1 {
    animation: dodo 2s ease infinite;
}

.cls-1{fill:none;}.cls-2{fill:#fec057;}.cls-3{fill:#231f20;}.cls-4{fill:#0069aa;}.cls-5{fill:#005189;}.cls-6{fill:#fff;}.cls-7{clip-path:url(#clip-path);}.cls-8{fill:#102548;}.cls-9{fill:#8e8f95;}.cls-10{fill:#b4c4de;}.cls-11{fill:#403f45;}.cls-12{fill:#8dc63f;}.cls-13{fill:#ffc425;}.cls-14{fill:#f89728;}
</style><clipPath id="clip-path"><path class="cls-1" d="M51,105.83s17.16,7,36.91,5.11l-1-12L61.75,97.11Z"/></clipPath></defs><title>Asset 1</title><g id="Layer_2" data-name="Layer 2"><g id="Layer_1-2" data-name="Layer 1"><g id="ani1"><path class="cls-2" d="M95.14,87.39s3.69,12.8-.72,21.68c0,0,19,4.56,35.13-4.52,0,0,8.68,7.57,15.89,3.88a6.85,6.85,0,0,0,4.05-5.52L147,100s9.17-.75,8-8.22c0,0-.87-6.85-7.73-4.92,0,0-4,2.17-10.32,1h0S132.93,81.4,125,86.37c0,0-4.71,1.72-5.07,1.12,0,0-6.58-4.5-19.18-4.79C100.71,82.7,101.91,83.42,95.14,87.39Z"/><path class="cls-2" d="M104.65,82.7a5.67,5.67,0,0,0,2.46,0,10.42,10.42,0,0,1,11-4.71s2.45.69,6.45-.79c0,0,0,.35-.84-1.72,0,0-13.17-.39-15.36,2.75,0,0-4.1,3.67-3.75,4.47"/><path class="cls-3" d="M102.79,83.1h-.26a.54.54,0,0,1-.5-.57.55.55,0,0,1,.58-.5,3,3,0,0,0,2.4-1.31c.17-.25,4-6,10.93-5.43a28.13,28.13,0,0,0,7.93-.24.54.54,0,0,1,.65.4.53.53,0,0,1-.39.65,29.07,29.07,0,0,1-8.3.26c-6.27-.53-9.88,4.89-9.91,5A4.13,4.13,0,0,1,102.79,83.1Z"/><path class="cls-3" d="M106.89,83.1a.51.51,0,0,1-.29-.08.53.53,0,0,1-.17-.74c.14-.23,3.58-5.67,10-5,3.37.41,8.4.38,9.1-1a.53.53,0,0,1,.72-.23.52.52,0,0,1,.24.72c-1.29,2.56-8.7,1.77-10.18,1.59-5.76-.61-9,4.42-9,4.47A.53.53,0,0,1,106.89,83.1Z"/><path class="cls-4" d="M124.69,75.07s1.44-6.3,6.42-6c0,0,5.54.31,6.34-.48,0,0,1.38.27.53,3.35,0,0-2.56,10.37-10,7.11,0,0-4.79-3.1-3.33-4"/><path class="cls-3" d="M125.18,77.77c-1-.94-1.48-1.66-1.42-2.29,0-.27,1.55-6.55,7.15-6.76,1.67-.06,6.58-.17,7.09-.54a.59.59,0,0,1,.62-.13.6.6,0,0,1,.39.5,14.37,14.37,0,0,1-.48,3.59c-.07.26-1.47,5.78-5.24,7.64a5.59,5.59,0,0,1-5.21.06A11.2,11.2,0,0,1,125.18,77.77Zm-.2-2.14a3.37,3.37,0,0,0,1,1.24,9,9,0,0,0,2.26,1.73,5.21,5.21,0,0,0,4.49.09C136,77.08,137.46,72,137.47,72c.21-1,.32-2,.4-2.69a34.25,34.25,0,0,1-6.83.51C126.61,69.47,125.11,75.54,125,75.63Z"/><path class="cls-2" d="M23.76,83l-8.17-.58S3.81,81,3.31,88.05c0,0,.07,8,10.28,8.74l9.14.65"/><path class="cls-5" d="M31.21,84.31s-5.66,2.7-7.79-.21l.23,4.32-3.85-.23L18.06,104.3l1.33,2.4a87.93,87.93,0,0,0,30.08-1s20.08,10.54,43.43,5c0,0,9.31-8.34,5.06-25,0,0-16,10.83-33.92,3.68C64,89.35,45.06,95.36,31.21,84.31Z"/><line class="cls-2" x1="37.86" y1="88.76" x2="31.21" y2="84.31"/><path class="cls-2" d="M41.4,30.7S24.79,40.5,23.65,64.37c0,0-1.06,20,16.39,25.11,0,0,43.48,9,49.58-20,0,0,4.2-20.67-12.77-35.13,0,0-16.67-13.26-35.45-3.66"/><path class="cls-3" d="M28,68.33c-.09,1.33-.54,2.37-1,2.34s-.77-1.13-.67-2.46.55-2.37,1-2.34.76,1.14.66,2.46"/><path class="cls-4" d="M62.42,67.2S50.67,80.62,65,90c0,0,9,1.87,14.35,1.72,0,0,27.16-.08,28.61-27.54,0,0-3.74,4.11-6.35,3.53,0,0,19.08-22.25-3-43.05,0,0,8.51-13.32-2-24.14,0,0-1.49,6.09-9.36,6.72,0,0-48.17-15.34-59.58,17.88,0,0,4.72,13.39,14.34,8.64,0,0-6.18,28.47,20.47,33.42"/><path class="cls-4" d="M44.53,29.19c2.41,8.93-8.68,12-8.68,12-7.1,2.94-5.57,11.32-5.57,11.32C11.69,49,14.73,35.36,18.38,30.78c6-7.53,13.74-4.32,13.74-4.32"/><path class="cls-2" d="M53.43,31.06s8.2,6.55,12.11,11.25c0,0,3.68-3.32,2.74-7.54,0,0-2.94-7.15-10-6.67,0,0-2.6-.05-4.9,3"/><path class="cls-3" d="M65.55,42.93a.67.67,0,0,1-.41-.22c-3.83-4.6-12-11.1-12-11.17a.6.6,0,0,1-.1-.84c2.45-3.23,5.27-3.21,5.4-3.21a14.12,14.12,0,0,1,1.84,0c5.66.41,8.3,4.53,8.7,7.2.58,3.94-2.75,7.86-2.89,8a.56.56,0,0,1-.46.21ZM54.35,31A108.58,108.58,0,0,1,65.58,41.35c.84-1.15,2.56-3.89,2.16-6.48-.23-1.58-2-5.77-7.58-6.16a12.48,12.48,0,0,0-1.73,0A5.7,5.7,0,0,0,54.35,31Z"/><path class="cls-3" d="M64.4,34.88a.54.54,0,0,1-.39-.19,5.27,5.27,0,0,0-7-1,.61.61,0,1,1-.7-1,6.55,6.55,0,0,1,8.56,1.18.6.6,0,0,1,0,.86A.56.56,0,0,1,64.4,34.88Z"/><path class="cls-3" d="M26.69,57.5a.42.42,0,0,1-.26-.08.48.48,0,0,1-.15-.64c.07-.1.69-1,3-1.49a6.54,6.54,0,0,1,3.69.46.48.48,0,0,1,.23.63.47.47,0,0,1-.63.23,5.64,5.64,0,0,0-3.09-.39,4,4,0,0,0-2.36,1.07A.46.46,0,0,1,26.69,57.5Z"/><path class="cls-3" d="M52.54,91.69c-10.38,0-18.08-2.81-23-8.39C19.21,71.54,25,52,25.24,51.15a.53.53,0,0,1,.67-.35.54.54,0,0,1,.36.67c-.06.19-5.85,19.82,4.09,31.12,6.45,7.34,18.07,9.66,34.53,6.89a.54.54,0,0,1,.18,1.07A76.16,76.16,0,0,1,52.54,91.69Z"/><path class="cls-3" d="M24.69,73a4.19,4.19,0,0,0-2.47.59c-.63.57-1.43,2.52,2.79,3.83C26.23,77.8,25,73,24.69,73Z"/><path class="cls-6" d="M23.78,84.45a6.75,6.75,0,0,0,4.85.52,5.47,5.47,0,0,0,4.05-6.31,5.9,5.9,0,0,0-6.75-4.54A6.51,6.51,0,0,0,21.52,78S19.9,82.38,23.78,84.45Z"/><path class="cls-3" d="M26.61,85.77a5.62,5.62,0,0,1-1.36-.16,5.81,5.81,0,0,1-3.4-2.46A6.6,6.6,0,0,1,21,78.06a7.18,7.18,0,0,1,3.8-4.12.54.54,0,1,1,.51,1,6.13,6.13,0,0,0-3.27,3.47,5.56,5.56,0,0,0,.74,4.26,4.78,4.78,0,0,0,2.73,1.95,6.57,6.57,0,0,0,5-1.18.54.54,0,0,1,.57.92A8.63,8.63,0,0,1,26.61,85.77Z"/><path class="cls-3" d="M80.9,112.37a82.17,82.17,0,0,1-31.65-6.19.54.54,0,1,1,.45-1,81.85,81.85,0,0,0,39,5.72,16.52,16.52,0,0,0,3.92-.67c.8-.79,8.92-9.34,4.86-24.44a.53.53,0,0,1,.38-.66.52.52,0,0,1,.65.38C102.91,102,93.36,111,93.26,111.1a.45.45,0,0,1-.14.1,17.61,17.61,0,0,1-4.37.79C86.05,112.26,83.42,112.37,80.9,112.37Z"/><path class="cls-3" d="M23.16,88.25h0a.53.53,0,0,1-.49-.58l.23-3.18a.54.54,0,0,1,1.07.07l-.23,3.19A.54.54,0,0,1,23.16,88.25Z"/><path class="cls-3" d="M3.37,90.32a.54.54,0,0,1-.53-.46A7.71,7.71,0,0,1,2.78,88a5.77,5.77,0,0,1,2.12-4.2c3.35-2.75,9.42-2,9.67-2l7.79.55a.54.54,0,1,1-.08,1.07l-7.81-.55c-.09,0-5.9-.71-8.89,1.75a4.76,4.76,0,0,0-1.73,3.47,7.12,7.12,0,0,0,0,1.62.53.53,0,0,1-.45.61Z"/><g class="cls-7"><path class="cls-8" d="M73.46,110.57l0,.16c-.5,2.47-2.85,3.49-6.45,2.79l-6.62-1.28.73-3.61L67.87,110A2.39,2.39,0,0,0,69,110s.1,0,.12-.16.07-.37-1.12-.6l-6.8-1.32.73-3.59,6.65,1.29c3.45.67,5.26,2.52,4.86,4.95"/><path class="cls-6" d="M62.16,109.86l5.51,1.06c1.65.33,2.58,0,2.75-.83s-.52-1.5-2.21-1.82L62.7,107.2l.34-1.65,5.36,1c3,.58,4.13,2,3.75,3.89s-1.93,2.66-5,2.07l-5.34-1Z"/></g><path class="cls-3" d="M39,89.54h0c-16.44-1.08-18.74-.86-18.84-.85A.53.53,0,0,1,20,87.63c.09,0,2.27-.26,19,.84a.54.54,0,0,1,0,1.07Z"/><path class="cls-6" d="M138,108.75s-4.2-7.54,6-11.32c0,0,6.88,4.8,5.45,7.13C149.38,104.56,146.89,111.24,138,108.75Z"/><path class="cls-3" d="M105.58,110.61a80.28,80.28,0,0,1-11.43-.78.54.54,0,0,1,.16-1.06c.23,0,22.82,3.39,34.94-4.67a.56.56,0,0,1,.66.05c.08.08,8.46,7.52,15.82,3.65.05,0,3-1.45,3.14-3.61.1-1.42-1-2.9-3.22-4.42-.19-.12-5-3.19-7.26-7.9,0-.14-1.32-4.78-4.88-6.33-2.07-.9-4.53-.6-7.32.88-.16.08-3.69,1.8-6.34,1.61a.52.52,0,0,1-.27-.1c-5.26-3.67-13.25-5-18.84-4.69a.55.55,0,0,1-.57-.51.55.55,0,0,1,.51-.57c5.72-.31,13.92,1,19.39,4.81,2.33.08,5.6-1.49,5.63-1.51,3.09-1.64,5.86-1.94,8.24-.91,4,1.77,5.4,6.74,5.45,7,2.07,4.33,6.8,7.34,6.85,7.37,2.6,1.76,3.84,3.57,3.7,5.4-.21,2.79-3.58,4.43-3.73,4.49-7.26,3.82-15-2.14-16.71-3.54C122.67,109.59,113.06,110.61,105.58,110.61Z"/><path class="cls-6" d="M143.56,88s4.69,11.84,9.89,9c0,0,3.23-2.73.31-8.24,0,0-2.58-3.4-5.52-2.31Z"/><path class="cls-3" d="M147,100.51a.54.54,0,0,1-.11-1.06c3.81-.77,6.21-2.21,7.16-4.29,1.19-2.6-.36-5.39-.37-5.42a4.42,4.42,0,0,0-2.56-2.39c-2.53-.85-5.58.66-5.61.68a14.07,14.07,0,0,1-8.61.1.54.54,0,0,1-.37-.66.55.55,0,0,1,.66-.38,12.91,12.91,0,0,0,7.88,0c.1-.05,3.45-1.7,6.4-.71a5.42,5.42,0,0,1,3.16,2.91,7.56,7.56,0,0,1,.4,6.36c-1.09,2.41-3.76,4.06-7.92,4.9Z"/><path class="cls-2" d="M22.26,104.11l-12.42-.88C-.36,102.5.65,94.56.65,94.56c.5-7.07,11.2-5.72,11.2-5.72l9.94.7A25.05,25.05,0,0,1,22.26,104.11Z"/><path class="cls-3" d="M32.66,107.92c-6.46,0-11.68-.52-12.1-.56a.54.54,0,0,1-.49-.59.55.55,0,0,1,.59-.48c.21,0,20.94,2.06,31.42-2a.56.56,0,0,1,.7.31.55.55,0,0,1-.31.7C47.07,107.39,39.22,107.92,32.66,107.92Z"/><path class="cls-3" d="M20,107.27h-.23c-1-.15-1.72-1.19-2.24-3.18a.54.54,0,0,1,1.05-.27c.52,2,1.12,2.35,1.35,2.38.53.08,1.23-.77,1.49-1.19,3.82-5.73-.11-14.59-.15-14.68-.58-1.25-1-1.57-1.21-1.57s-.5.45-.61.77a.54.54,0,0,1-.69.31.53.53,0,0,1-.32-.68c.05-.15.54-1.43,1.57-1.47.79,0,1.53.68,2.24,2.19.18.39,4.21,9.49.08,15.71C22.27,105.74,21.3,107.27,20,107.27Z"/><path class="cls-3" d="M22,104.63h0l-12.23-.87c-3.6-.26-6.27-1.41-7.93-3.44A8.28,8.28,0,0,1,0,94.49a5.77,5.77,0,0,1,2.12-4.2c3.36-2.75,9.43-2,9.68-2l9.64.69a.54.54,0,0,1-.07,1.08l-9.67-.69c-.09,0-5.9-.71-8.9,1.75A4.8,4.8,0,0,0,1.1,94.59a7.31,7.31,0,0,0,1.54,5.06c1.47,1.78,3.88,2.8,7.16,3l12.24.87a.54.54,0,0,1,0,1.08Z"/><path class="cls-3" d="M75.41,92.12c-13.31,0-15.85-6.39-16-6.7-4.41-9.13.24-15.69,2.15-17.84C38.8,63.13,40.8,39.33,40.82,39.09a.54.54,0,1,1,1.07.1c-.09,1-2,23.74,20.88,27.51a.54.54,0,0,1,.43.38.56.56,0,0,1-.17.56c-.31.27-7.66,6.88-2.6,17.36,0,.12,3.26,7.89,21.32,5.62,1,0,22.55.24,25.52-25.18-1.43,1.11-4,2.9-5.7,2.82a.5.5,0,0,1-.47-.31.52.52,0,0,1,.07-.56c.75-.94,18.28-23.08-3-42.31a.55.55,0,0,1-.09-.69c.33-.51,7.71-12.42-1.38-22.87a11,11,0,0,1-4.86,5.11,11,11,0,0,1-8.6.13C83.06,6.7,62,.28,43.92,7.87c-.13,0-12.36,5.31-15.79,18.22a.53.53,0,0,1-.66.38.55.55,0,0,1-.38-.66C30.66,12.38,43.37,6.93,43.5,6.88,62-.87,83.38,5.67,83.59,5.73c3,1,5.58,1,7.78-.06A10.21,10.21,0,0,0,96,.36a.55.55,0,0,1,.4-.35.52.52,0,0,1,.5.16c9.52,10.13,3.59,22.1,2.3,24.41,18.78,17.33,7,37.37,3.6,42.33a20.13,20.13,0,0,0,4.75-3.12.53.53,0,0,1,.59-.07.54.54,0,0,1,.3.53C106,92,82.07,91.73,81.81,91.69A51,51,0,0,1,75.41,92.12Z"/><path class="cls-3" d="M30.28,53h-.11c-6.67-1.31-11.2-4-13.45-8a13.31,13.31,0,0,1-.93-10.35c.06-.17.13-.34.2-.51a13.79,13.79,0,0,1,14.34-8.76.54.54,0,0,1,.45.61.53.53,0,0,1-.61.46,12.47,12.47,0,0,0-13.17,8l-.2.53a12.41,12.41,0,0,0,.86,9.46c2,3.54,6,6,11.94,7.28a10.6,10.6,0,0,1,3.9-9.92,14.27,14.27,0,0,1,5.4-2.56c.26-.06,6.78-1.67,5.31-9a.54.54,0,1,1,1.06-.21,8.4,8.4,0,0,1-6.15,10.3,13.69,13.69,0,0,0-4.95,2.35,9.48,9.48,0,0,0-3.38,9.63.53.53,0,0,1-.12.51A.54.54,0,0,1,30.28,53Z"/><path class="cls-9" d="M146.52,110s.14,8.35,1.12,10.14l-12.3-1.24,6.83-5.49Z"/><path class="cls-6" d="M177.68,125a1.52,1.52,0,1,0,1.32-1.69,1.51,1.51,0,0,0-1.32,1.69"/><path class="cls-6" d="M184.49,122.38l-2.77.09-4.44,5c-2.79-.92-5.89-1.91-9.17-2.9-6.63-2-13.92-2.86-21.07-4.42-4.73-1-10-1-14.23-1.41-1.63-.18-3.21-.3-4.71-.36-2.3-.09-9.27-.11-13,4.24,1.7-2-2.56,4.7-3.55,7.11-.56,1.39-1.08,3.1-.16,4.29a4.25,4.25,0,0,0,2.93,1.23c4.29.58,13.87.9,18.18,1h0c.12-2.86.31-5.7.32-8.26,3.06.39,8,.48,10.9,1.49a3.94,3.94,0,0,1,2.19,1.42,4,4,0,0,1,.4,2.16v2.44c3.58.17,16.17.25,21.21,0a54.94,54.94,0,0,0-2.55-5,85.59,85.59,0,0,0,12.09-.05c.65,1.32,1.21,2.47,1.76,3.57h0a28.67,28.67,0,0,0,3.34-.85c1.86-.83,6.63-11,6.63-11Z"/><path class="cls-10" d="M115.77,123c-.73.77-3.22,4.49-3.22,4.49,3.16,1.41,10.7,1.1,12.64.69s2-4.35-.24-4.41-7.11.87-9.18-.77"/><path class="cls-9" d="M132.56,136.26a58.81,58.81,0,0,0,.21,10.77c.5,3.6,1.24,7.34,3.55,10.15s6.64,4.24,9.67,2.24c.25-8,.35-15.93.38-23.91,0-.81,0-1.63,0-2.44a4,4,0,0,0-.4-2.16,3.94,3.94,0,0,0-2.19-1.42c-2.92-1-7.84-1.1-10.9-1.49,0,2.56-.2,5.4-.32,8.26"/><path class="cls-9" d="M177.12,130.47a85.59,85.59,0,0,1-12.09.05,54.94,54.94,0,0,1,2.55,5h0c.68,1.49,1.37,3,2.21,4.73.37.74,7.68,2.72,13.35,2.39-1.66-3.38-2.87-5.78-4.26-8.61h0c-.55-1.1-1.11-2.26-1.76-3.57"/><path class="cls-9" d="M176.78,120c-2.62.89-5.55,2.86-8.67,4.51,3.28,1,6.38,2,9.17,2.9l4.44-5,2.77-.09,1.2-1.14a38.88,38.88,0,0,0-8.91-1.2"/><path class="cls-11" d="M126.92,136.74l5.61.2a.69.69,0,0,0,.69-.66.67.67,0,0,0-.65-.69h0c-9-.28-15.15-.62-18.11-1a3.73,3.73,0,0,1-2.51-1c-.7-.9-.23-2.4.26-3.62,2.1-5.1,4.19-8.61,9.29-10.34a18.14,18.14,0,0,1,6.58-.59h.07a178.23,178.23,0,0,1,48.91,9.06.65.65,0,0,0,.71-.19l4.26-4.76,5.74-.19c-2.21,4.57-4.85,9.2-5.81,9.62a23,23,0,0,1-3.21.8.67.67,0,0,0-.53.79.66.66,0,0,0,.79.53,26,26,0,0,0,3.5-.89c2-.88,6.14-9.54,7-11.27a.66.66,0,0,0-.05-.65.62.62,0,0,0-.57-.31l-7.14.23a.66.66,0,0,0-.48.22l-4.16,4.66a177.49,177.49,0,0,0-48.85-9h-.08a19.42,19.42,0,0,0-7.06.66c-5.63,1.91-7.89,5.74-10.1,11.11-.63,1.55-1.21,3.51-.08,5a4.78,4.78,0,0,0,3.38,1.49c2.39.33,6.55.6,12.65.85"/><path class="cls-11" d="M168.07,125.22a.69.69,0,0,0,.35-.07c1-.53,2-1.09,2.94-1.64a34.64,34.64,0,0,1,5.64-2.84,45,45,0,0,1,7.35.91l-.21.2-.12.12a.67.67,0,0,0,0,.95.66.66,0,0,0,.94,0l.12-.12,1.09-1a.66.66,0,0,0,.21-.63.69.69,0,0,0-.45-.51c-2.16-.72-8.54-1.47-9.35-1.2a35.7,35.7,0,0,0-5.87,2.94c-.95.54-1.91,1.1-2.9,1.62a.68.68,0,0,0-.28.91.64.64,0,0,0,.56.35"/><path class="cls-11" d="M180.78,143.33c-5-.2-11-1.68-11.58-2.78-.63-1.26-1.17-2.45-1.7-3.59a68.19,68.19,0,0,0-3.05-6.11.67.67,0,0,1,.64-1,83.23,83.23,0,0,0,12-.05.71.71,0,0,1,.65.38c1.14,2.32,2.07,4.19,3,6.05s1.87,3.76,3,6.12a.68.68,0,0,1-.57,1c-.75,0-1.56.05-2.4,0m1.3-1.33c-1-1.93-1.76-3.56-2.57-5.18l-2.8-5.65a89.86,89.86,0,0,1-10.48.11c.93,1.7,1.69,3.37,2.5,5.11.51,1.14,1.06,2.31,1.61,3.47.66.59,6.66,2.19,11.74,2.14"/><path class="cls-11" d="M142.49,161a9.57,9.57,0,0,1-6.7-3.42c-2.49-3-3.21-7-3.7-10.47a73.63,73.63,0,0,1-.1-13.23c.1-2.08.2-4.05.21-5.9a.71.71,0,0,1,.23-.5.7.7,0,0,1,.53-.16c.87.1,1.9.19,3,.28a36,36,0,0,1,8.05,1.24,4.5,4.5,0,0,1,2.54,1.7,4.73,4.73,0,0,1,.5,2.52c0,8.77-.12,17.64-.39,26.37a.67.67,0,0,1-.29.54,6.45,6.45,0,0,1-3.87,1m2.82-2c.26-8.6.39-17.32.39-26a3.53,3.53,0,0,0-.31-1.82,3.39,3.39,0,0,0-1.84-1.13,35.15,35.15,0,0,0-7.71-1.17l-2.3-.2c0,1.65-.12,3.39-.21,5.21a72.51,72.51,0,0,0,.1,13c.45,3.3,1.14,7.06,3.4,9.81,2,2.38,5.7,3.87,8.48,2.29"/><path class="cls-11" d="M146.76,136.19c4.2.17,16.11.24,20.86,0a.68.68,0,0,0,.64-.7.67.67,0,0,0-.7-.65c-4.88.23-17.42.14-21.16,0h0a.69.69,0,0,0-.71.64.66.66,0,0,0,.64.7l.43,0"/><path class="cls-11" d="M121.49,129.17a46,46,0,0,1-9.06-1.2.54.54,0,0,1,.25-1c2.59.62,9.87,1.94,12.32.6h0a2,2,0,0,0,.91-1.29,2,2,0,0,0-.28-1.36,1.7,1.7,0,0,0-1.16-.6,23.52,23.52,0,0,1-9.48-.83.53.53,0,0,1-.36-.67.52.52,0,0,1,.66-.36,22.86,22.86,0,0,0,9.09.79h.16a2.79,2.79,0,0,1,2,1,3.05,3.05,0,0,1,.48,2.14,3.09,3.09,0,0,1-1.45,2.08A9,9,0,0,1,121.49,129.17Z"/><path class="cls-11" d="M135.9,118.85a.54.54,0,0,1-.43-.21.53.53,0,0,1,.1-.75l10.62-8.27a.54.54,0,0,1,.66.85l-10.62,8.27A.59.59,0,0,1,135.9,118.85Z"/><path class="cls-12" d="M157.07,101.83s.51-3,4.51-2.86c0,0,2.49.54,4.41-2.26a2.86,2.86,0,0,1-.28,3,4.1,4.1,0,0,1-4.25,1.88,8.71,8.71,0,0,0-4.39.29"/><path class="cls-3" d="M157.07,102.3a.47.47,0,0,1-.31-.12.48.48,0,0,1-.15-.44s.61-3.25,4.79-3.25h.19a2.67,2.67,0,0,0,.5,0,4.25,4.25,0,0,0,3.51-2.09.44.44,0,0,1,.42-.21.5.5,0,0,1,.39.25,3.34,3.34,0,0,1-.32,3.47,4.54,4.54,0,0,1-4.68,2.06,6.41,6.41,0,0,0-1.49-.15,8.9,8.9,0,0,0-2.7.42Zm4.41-2.87h-.08a3.79,3.79,0,0,0-3.54,1.69,9.55,9.55,0,0,1,2.06-.22,6.73,6.73,0,0,1,1.65.17h.51a3.53,3.53,0,0,0,3.21-1.64,2.44,2.44,0,0,0,.5-1.72A4.81,4.81,0,0,1,161.48,99.43Z"/><path class="cls-12" d="M157.55,102a7.72,7.72,0,0,1,5.67,1.12s3.09,2.63,5.76,2.7c0,0-4.87,2.18-7.38-1.62C161.6,104.22,159.74,101.34,157.55,102Z"/><path class="cls-3" d="M165.92,106.94a5.38,5.38,0,0,1-4.72-2.46s-1.37-2.08-3-2.09a2.87,2.87,0,0,0-.57.09.48.48,0,0,1-.25-.92,2.88,2.88,0,0,1,.77-.12,8.23,8.23,0,0,1,5.29,1.3c.08.06,3.05,2.56,5.52,2.63a.48.48,0,0,1,.18.91A8.74,8.74,0,0,1,165.92,106.94Zm-5.13-4.36A6.93,6.93,0,0,1,162,104a4.44,4.44,0,0,0,3.93,2,7.1,7.1,0,0,0,1.06-.09,14.87,14.87,0,0,1-4.07-2.4A7,7,0,0,0,160.79,102.58Z"/><path class="cls-13" d="M153.4,101.91s-12.64,4.55-4.7,20.48c0,0,4.28,7.17,4.41,9.29l.36-.26s9.74-7,6.42-17.79c0,0-3.27-10.37-2.95-12Z"/><path class="cls-14" d="M146.93,118.06a5.12,5.12,0,0,0,1.63-3.76,4.94,4.94,0,0,0-2-4.26s-1.38,2.3.32,7.7Z"/><path class="cls-13" d="M156.93,102.88s1.35,12.65,9,15.1v1.85s-4,.92-6.09,2.64"/><path class="cls-3" d="M159.89,123a.54.54,0,0,1-.34-1,17.54,17.54,0,0,1,5.89-2.64v-1c-7.62-2.79-9-14.9-9.05-15.42a.54.54,0,1,1,1.07-.12c0,.12,1.41,12.34,8.68,14.65a.53.53,0,0,1,.37.51v1.85a.55.55,0,0,1-.41.53s-3.89.91-5.87,2.53A.54.54,0,0,1,159.89,123Z"/><path class="cls-13" d="M146,101.47S138,81.4,163.61,77.72c0,0-8.51,8.51-7.13,23.32Z"/><path class="cls-12" d="M157.07,101s-10.36-1.18-13.24.62l-.48,1.83s1.18,4.31,2.59,5.34l.58.32s7.94-6.6,10.69-6.6Z"/><path class="cls-6" d="M145.81,100.24a3.5,3.5,0,0,0,.9-2.25,1.81,1.81,0,0,0-.56-1.35c-.56-.3-.71-.08-.71-.08"/><path class="cls-13" d="M156.64,114.12a10.94,10.94,0,0,0,3.48-6.67s-4.93-.4-6.39-3.28"/><path class="cls-3" d="M156.64,114.66a.51.51,0,0,1-.38-.16.54.54,0,0,1,0-.76,11,11,0,0,0,3.26-5.82c-1.39-.2-5-1-6.27-3.5a.55.55,0,0,1,.24-.73.54.54,0,0,1,.72.24c1.31,2.57,5.91,3,6,3a.54.54,0,0,1,.49.56,11.42,11.42,0,0,1-3.64,7A.52.52,0,0,1,156.64,114.66Z"/><path class="cls-3" d="M145.17,93.32c0,.41-.13.73-.31.73s-.31-.32-.31-.73.14-.72.31-.72.31.32.31.72"/><path class="cls-3" d="M145.63,96.2a3.62,3.62,0,0,1-2.14-.65c-2-1.45-2-4.83-.07-7.55a6.65,6.65,0,0,1,5.05-3,3.67,3.67,0,0,1,2.14.66,4,4,0,0,1,1.52,3.39,7.32,7.32,0,0,1-1.46,4.15A6.57,6.57,0,0,1,145.63,96.2Z"/><path class="cls-6" d="M149.24,89.07a.74.74,0,1,1-.74-.73.74.74,0,0,1,.74.73"/><path class="cls-3" d="M156.48,101.58a.53.53,0,0,1-.53-.47c-1.5-11,4.08-19.65,6.35-22.63-7.5,1.35-12.57,4.27-15.09,8.69-3.59,6.27-.71,13.53-.68,13.6a.53.53,0,0,1-.3.7.54.54,0,0,1-.7-.29c-.13-.32-3.1-7.8.74-14.54,2.84-5,8.65-8.17,17.26-9.45a.54.54,0,0,1,.55.28.53.53,0,0,1-.08.62c-.08.09-8.77,9.69-7,22.88a.54.54,0,0,1-.46.6Z"/><path class="cls-3" d="M146.66,109.57a.49.49,0,0,1-.21,0,4.91,4.91,0,0,1-3.08-4.16,3.46,3.46,0,0,1-.53-3.28.45.45,0,0,1,.1-.14c.38-.4,1.55-1.6,8.8-1.6,2.78,0,5.18.18,5.2.18l.17,0a1.5,1.5,0,0,1,.88,1,1.3,1.3,0,0,1-.59,1.21l-.1.07-3.81,2c-5,2.43-6.36,4.5-6.38,4.52A.53.53,0,0,1,146.66,109.57Zm-2.88-6.94a2.76,2.76,0,0,0,.57,2.28.5.5,0,0,1,.09.29,3.8,3.8,0,0,0,2.06,3.16c.64-.76,2.43-2.54,6.51-4.52l3.75-1.92c.15-.13.16-.2.16-.2a.64.64,0,0,0-.16-.12c-.49,0-2.61-.18-5-.18C146,101.42,144.26,102.22,143.78,102.63Z"/><path class="cls-3" d="M147.09,118.6a.52.52,0,0,1-.33-.12.53.53,0,0,1-.1-.75,5.44,5.44,0,0,0-.5-7.58.54.54,0,0,1,0-.76.55.55,0,0,1,.76,0s4.47,4.11.63,9A.51.51,0,0,1,147.09,118.6Z"/><path class="cls-3" d="M153.11,132.21a.57.57,0,0,1-.22,0,.54.54,0,0,1-.31-.46c-.08-1.15-1.6-4.12-2.17-5.16-1.27-2.31-3.09-5.78-3.1-5.81-3.4-7.71-1.22-11.8-1.12-12a.53.53,0,0,1,.73-.21.54.54,0,0,1,.21.73c0,.07-2,3.88,1.15,11,0,0,1.8,3.46,3.07,5.76a30.79,30.79,0,0,1,2.1,4.65c1.5-1.38,5.11-5.11,6.15-10.14a.54.54,0,1,1,1.05.22c-1.4,6.78-7,11.16-7.21,11.34A.51.51,0,0,1,153.11,132.21Z"/><path class="cls-3" d="M145.78,100.78a.55.55,0,0,1-.53-.41.54.54,0,0,1,.4-.65c.5-.12.57-1.21.52-1.68s-.17-.74-.26-.78-.37,0-.44.1a.54.54,0,1,1-.6-.89,1.62,1.62,0,0,1,1.5-.18,1.83,1.83,0,0,1,.88,1.65c.08.91-.11,2.53-1.34,2.83Z"/></g></g></g></svg>